<?xml version="1.0" standalone="no"?>
<!DOCTYPE svg PUBLIC "-//W3C//DTD SVG 20010904//EN"
 "http://www.w3.org/TR/2001/REC-SVG-20010904/DTD/svg10.dtd">
<svg version="1.0" xmlns="http://www.w3.org/2000/svg"
 width="893.000000pt" height="798.000000pt" viewBox="0 0 893.000000 798.000000"
 preserveAspectRatio="xMidYMid meet">

<g transform="translate(0.000000,798.000000) scale(0.100000,-0.100000)"
fill="#FFF" stroke="none">
<path d="M4540 7673 c-541 -38 -973 -157 -1425 -392 -701 -364 -1264 -962
-1605 -1701 -95 -205 -227 -573 -217 -604 2 -5 11 19 21 54 11 40 21 58 26 50
5 -8 12 0 20 26 22 69 113 295 117 291 2 -2 -14 -53 -36 -113 -125 -349 -192
-675 -209 -1014 -9 -171 -4 -316 10 -294 4 6 14 98 23 204 32 402 92 708 199
1017 37 107 117 305 122 301 1 -2 -20 -63 -47 -136 -96 -255 -176 -577 -215
-857 -15 -114 -33 -616 -21 -605 3 3 11 100 17 215 18 344 46 537 120 820 73
279 156 501 254 675 30 52 71 129 91 170 58 116 223 352 363 518 83 98 326
330 459 437 428 343 928 577 1448 678 287 56 329 61 515 65 475 9 859 -54
1283 -210 417 -152 839 -419 1147 -724 58 -57 110 -103 115 -102 21 4 291
-354 410 -544 36 -56 104 -179 150 -273 47 -93 92 -178 99 -188 20 -26 109
-299 150 -461 54 -205 87 -397 81 -464 -3 -41 -2 -50 4 -32 6 17 8 0 6 -55 -3
-53 -1 -66 3 -40 7 40 8 39 15 -24 8 -75 7 -125 -2 -66 -3 22 -6 -87 -6 -243
0 -155 -3 -274 -7 -265 -5 10 -6 -12 -4 -50 2 -37 0 -69 -4 -72 -6 -4 -17 -79
-25 -190 -12 -148 -143 -596 -235 -806 -85 -192 -232 -447 -372 -641 -90 -126
-140 -187 -272 -332 -149 -163 -47 -86 183 138 123 121 123 121 86 61 -171
-276 -530 -609 -915 -847 -166 -103 -162 -100 -107 -78 26 11 47 18 47 16 0
-9 -143 -94 -255 -153 -66 -34 -117 -63 -113 -63 12 0 162 67 264 118 457 230
848 553 1178 975 141 181 305 445 290 468 -4 8 -3 9 4 5 14 -8 76 110 66 126
-5 7 -2 8 6 3 10 -6 12 -4 7 9 -4 9 -3 15 1 12 5 -3 16 11 25 30 23 47 21 57
-3 14 -26 -48 -25 -31 2 24 12 25 25 43 30 40 4 -3 5 3 1 12 -5 13 -3 15 7 9
9 -5 11 -4 6 3 -4 6 18 73 48 149 77 195 188 578 187 646 0 9 4 17 8 17 4 0 6
12 6 28 -1 15 2 32 6 37 4 6 16 71 26 145 14 108 18 200 18 460 0 179 1 316 3
305 1 -11 6 -72 11 -135 l7 -115 5 102 c2 57 0 99 -5 96 -5 -3 -7 22 -4 56 2
33 1 61 -4 61 -11 0 -9 60 3 85 7 14 8 7 4 -28 -3 -30 -1 -46 5 -42 6 4 10 -8
11 -27 0 -18 4 -94 8 -168 18 -294 -22 -735 -95 -1039 -13 -57 -22 -114 -19
-125 5 -17 4 -18 -5 -6 -9 12 -10 9 -5 -13 4 -21 3 -27 -6 -21 -9 5 -10 -1 -5
-20 5 -20 4 -26 -5 -20 -9 5 -10 2 -6 -10 10 -25 -3 -72 -15 -54 -5 8 -6 2 -2
-16 5 -19 3 -27 -4 -22 -6 4 -8 -2 -4 -16 3 -14 1 -19 -6 -14 -8 4 -10 2 -6
-8 8 -21 -121 -364 -133 -352 -2 2 3 18 11 35 9 16 16 34 16 38 0 4 -36 -64
-79 -152 -85 -171 -189 -351 -266 -459 -26 -36 -44 -66 -41 -66 9 0 130 179
181 268 26 45 49 82 52 82 12 0 -124 -224 -207 -341 -527 -742 -1286 -1244
-2170 -1433 -255 -55 -474 -77 -775 -78 l-220 -1 150 -10 c326 -21 779 31
1126 128 50 14 93 24 96 22 6 -7 -277 -84 -407 -112 -190 -40 -339 -60 -600
-81 -70 -5 -81 -8 -60 -16 39 -16 368 -2 510 21 662 106 1236 358 1747 767
218 175 506 481 664 704 365 516 580 1081 653 1720 81 707 -51 1500 -349 2085
-473 930 -1361 1640 -2371 1894 -345 86 -753 126 -1064 104z m673 -70 c-7 -2
-21 -2 -30 0 -10 3 -4 5 12 5 17 0 24 -2 18 -5z m209 -33 c206 -43 340 -82
512 -152 362 -145 725 -358 996 -584 111 -92 268 -241 282 -268 6 -12 -41 29
-105 91 -339 327 -768 598 -1207 761 -173 65 -315 105 -515 147 -88 18 -148
34 -133 34 15 1 91 -12 170 -29z m2029 -1277 c13 -16 12 -17 -3 -4 -10 7 -18
15 -18 17 0 8 8 3 21 -13z m40 -50 c13 -16 12 -17 -3 -4 -10 7 -18 15 -18 17
0 8 8 3 21 -13z m123 -172 c212 -320 368 -664 472 -1041 19 -69 34 -132 33
-140 0 -8 -16 41 -35 110 -87 312 -206 599 -354 855 -35 61 -71 126 -81 145
-9 19 -47 78 -84 130 -37 52 -60 88 -51 81 9 -7 54 -70 100 -140z m543 -1113
c-3 -8 -6 -5 -6 6 -1 11 2 17 5 13 3 -3 4 -12 1 -19z m10 -40 c-3 -8 -6 -5 -6
6 -1 11 2 17 5 13 3 -3 4 -12 1 -19z m10 -40 c-3 -8 -6 -5 -6 6 -1 11 2 17 5
13 3 -3 4 -12 1 -19z m-50 -40 c-3 -7 -5 -2 -5 12 0 14 2 19 5 13 2 -7 2 -19
0 -25z m60 -10 c-3 -8 -6 -5 -6 6 -1 11 2 17 5 13 3 -3 4 -12 1 -19z m-50 -30
c-3 -8 -6 -5 -6 6 -1 11 2 17 5 13 3 -3 4 -12 1 -19z m60 -20 c-3 -7 -5 -2 -5
12 0 14 2 19 5 13 2 -7 2 -19 0 -25z m-50 -30 c-3 -7 -5 -2 -5 12 0 14 2 19 5
13 2 -7 2 -19 0 -25z m60 -20 c-3 -7 -5 -2 -5 12 0 14 2 19 5 13 2 -7 2 -19 0
-25z m-50 -40 c-3 -7 -5 -2 -5 12 0 14 2 19 5 13 2 -7 2 -19 0 -25z m59 -24
c-4 -14 -9 -24 -12 -21 -3 2 -2 17 2 31 3 15 9 25 11 22 3 -3 2 -17 -1 -32z
m-49 -26 c-3 -8 -6 -5 -6 6 -1 11 2 17 5 13 3 -3 4 -12 1 -19z m58 -45 c-9
-37 -18 -20 -9 19 4 18 9 27 11 20 3 -7 2 -24 -2 -39z m-48 -25 c-3 -7 -5 -2
-5 12 0 14 2 19 5 13 2 -7 2 -19 0 -25z m30 -115 c-3 -10 -5 -2 -5 17 0 19 2
27 5 18 2 -10 2 -26 0 -35z m80 -1015 c-3 -8 -6 -5 -6 6 -1 11 2 17 5 13 3 -3
4 -12 1 -19z m-26 -155 c-21 -103 -85 -321 -97 -332 -4 -3 -4 2 -1 12 19 52
86 312 98 377 7 41 15 68 17 59 1 -9 -6 -61 -17 -116z m-375 -862 c-31 -61
-58 -111 -61 -111 -3 0 21 52 52 115 32 63 59 113 61 111 2 -2 -22 -54 -52
-115z m-81 -21 c-9 -16 -18 -30 -21 -30 -2 0 2 14 11 30 9 17 18 30 21 30 2 0
-2 -13 -11 -30z m75 -110 c-11 -22 -23 -40 -25 -40 -3 0 4 18 15 40 11 22 23
40 25 40 3 0 -4 -18 -15 -40z m-61 -107 c-269 -476 -715 -939 -1179 -1225
-116 -72 -150 -91 -150 -85 0 3 27 21 61 41 74 44 279 192 409 295 122 96 453
427 554 554 94 118 209 281 279 395 57 94 74 110 26 25z m-1364 -1333 c-3 -5
-12 -10 -18 -10 -7 0 -6 4 3 10 19 12 23 12 15 0z"/>
<path d="M6167 6496 c-3 -7 -1 -94 5 -192 30 -537 -45 -1620 -163 -2344 -143
-879 -566 -1917 -933 -2292 -237 -241 -335 -104 -400 557 -38 383 -48 943 -35
1820 12 769 5 1060 -31 1340 -49 373 -146 565 -288 565 -142 0 -323 -245 -495
-670 -284 -699 -547 -1837 -598 -2581 -16 -237 2 -366 49 -357 15 3 17 20 18
133 1 155 4 180 54 492 83 512 284 1380 417 1803 190 603 396 1009 543 1070
89 37 141 -86 170 -395 15 -158 20 -499 24 -1615 3 -557 9 -1055 15 -1145 42
-619 105 -965 205 -1123 32 -51 88 -99 125 -107 45 -10 132 12 186 46 238 151
472 508 693 1059 279 696 473 1698 537 2779 28 473 12 1105 -30 1151 -21 23
-60 27 -68 6z"/>
<path d="M1271 4914 c0 -11 3 -14 6 -6 3 7 2 16 -1 19 -3 4 -6 -2 -5 -13z"/>
<path d="M1261 4874 c0 -11 3 -14 6 -6 3 7 2 16 -1 19 -3 4 -6 -2 -5 -13z"/>
<path d="M1251 4834 c0 -11 3 -14 6 -6 3 7 2 16 -1 19 -3 4 -6 -2 -5 -13z"/>
<path d="M7991 4564 c0 -11 3 -14 6 -6 3 7 2 16 -1 19 -3 4 -6 -2 -5 -13z"/>
<path d="M8243 4060 c0 -30 2 -43 4 -27 2 15 2 39 0 55 -2 15 -4 2 -4 -28z"/>
<path d="M8016 2765 c-9 -26 -7 -32 5 -12 6 10 9 21 6 23 -2 3 -7 -2 -11 -11z"/>
<path d="M7996 2715 c-9 -26 -7 -32 5 -12 6 10 9 21 6 23 -2 3 -7 -2 -11 -11z"/>
<path d="M7976 2665 c-9 -26 -7 -32 5 -12 6 10 9 21 6 23 -2 3 -7 -2 -11 -11z"/>
<path d="M1481 2567 c-1 -4 39 -88 88 -185 103 -203 265 -455 401 -622 136
-167 412 -439 565 -557 144 -111 335 -242 335 -230 0 3 -46 36 -102 75 -310
211 -626 513 -853 815 -114 150 -289 428 -367 581 -37 72 -67 127 -67 123z"/>
<path d="M7354 2033 c-15 -20 -23 -33 -16 -29 13 8 56 66 49 66 -3 0 -17 -17
-33 -37z"/>
<path d="M7229 1878 c-57 -71 -73 -95 -34 -53 39 42 79 95 72 95 -2 0 -19 -19
-38 -42z"/>
<path d="M7067 1697 c-42 -46 -116 -118 -164 -159 -144 -124 -152 -133 -68
-70 84 63 323 297 313 307 -3 3 -40 -32 -81 -78z"/>
<path d="M2645 1276 c137 -126 483 -337 731 -447 209 -93 573 -210 608 -195 6
2 4 5 -5 5 -37 2 -275 73 -404 121 -318 119 -636 296 -910 507 -67 52 -68 52
-20 9z"/>
<path d="M3240 1085 c0 -7 81 -47 86 -43 2 3 -17 14 -41 26 -25 12 -45 20 -45
17z"/>
<path d="M2910 946 c0 -3 14 -12 30 -21 17 -9 30 -13 30 -11 0 3 -13 12 -30
21 -16 9 -30 13 -30 11z"/>
<path d="M5821 898 c-34 -10 -61 -22 -58 -25 6 -5 137 35 137 43 0 6 -9 4 -79
-18z"/>
<path d="M2980 906 c0 -3 14 -12 30 -21 17 -9 30 -13 30 -11 0 3 -13 12 -30
21 -16 9 -30 13 -30 11z"/>
<path d="M3315 729 c182 -89 407 -170 583 -209 29 -7 55 -10 58 -8 2 3 -22 11
-53 18 -162 36 -467 146 -620 224 -29 14 -56 26 -60 25 -4 0 37 -23 92 -50z"/>
<path d="M3490 755 c0 -8 73 -36 78 -30 3 3 3 5 0 5 -3 0 -22 7 -42 15 -20 8
-36 13 -36 10z"/>
<path d="M4743 713 c32 -2 81 -2 110 0 29 2 3 3 -58 3 -60 0 -84 -1 -52 -3z"/>
<path d="M4008 623 c7 -3 16 -2 19 1 4 3 -2 6 -13 5 -11 0 -14 -3 -6 -6z"/>
<path d="M4058 613 c6 -2 18 -2 25 0 6 3 1 5 -13 5 -14 0 -19 -2 -12 -5z"/>
<path d="M4108 603 c7 -3 16 -2 19 1 4 3 -2 6 -13 5 -11 0 -14 -3 -6 -6z"/>
<path d="M5565 599 c-163 -49 -451 -88 -740 -99 l-220 -8 230 4 c243 4 384 18
580 59 137 29 229 53 200 53 -11 0 -33 -4 -50 -9z"/>
<path d="M4158 593 c7 -3 16 -2 19 1 4 3 -2 6 -13 5 -11 0 -14 -3 -6 -6z"/>
<path d="M4293 573 c9 -2 23 -2 30 0 6 3 -1 5 -18 5 -16 0 -22 -2 -12 -5z"/>
<path d="M3978 503 c7 -3 16 -2 19 1 4 3 -2 6 -13 5 -11 0 -14 -3 -6 -6z"/>
<path d="M4283 463 c9 -2 23 -2 30 0 6 3 -1 5 -18 5 -16 0 -22 -2 -12 -5z"/>
<path d="M4368 453 c12 -2 32 -2 45 0 12 2 2 4 -23 4 -25 0 -35 -2 -22 -4z"/>
</g>
</svg>
